<?xml version="1.0" encoding="utf-8"?>
<svg version="1.1" xmlns:xlink="http://www.w3.org/1999/xlink" width="19px" height="18px" xmlns="http://www.w3.org/2000/svg">
  <g transform="matrix(1 0 0 1 -291 18 )">
    <path d="M 18.5521885521886 13.4545454545455  C 18.8507295173962 13.7373737373737  19 14.0808080808081  19 14.4848484848485  C 19 14.8888888888889  18.8507295173962 15.2323232323232  18.5521885521886 15.5151515151515  L 16.3771043771044 17.5757575757576  C 16.0785634118967 17.8585858585859  15.716049382716 18  15.2895622895623 18  C 14.8630751964085 18  14.5005611672278 17.8585858585859  14.2020202020202 17.5757575757576  L 9.5 13.1212121212121  L 4.7979797979798 17.5757575757576  C 4.49943883277217 17.8585858585859  4.13692480359147 18  3.71043771043771 18  C 3.28395061728395 18  2.92143658810326 17.8585858585859  2.62289562289562 17.5757575757576  L 0.447811447811448 15.5151515151515  C 0.149270482603816 15.2323232323232  0 14.8888888888889  0 14.4848484848485  C 0 14.0808080808081  0.149270482603816 13.7373737373737  0.447811447811448 13.4545454545455  L 5.14983164983165 9  L 0.447811447811448 4.54545454545455  C 0.149270482603816 4.26262626262626  0 3.91919191919192  0 3.51515151515152  C 0 3.11111111111111  0.149270482603816 2.76767676767677  0.447811447811448 2.48484848484849  L 2.62289562289562 0.424242424242424  C 2.92143658810326 0.141414141414141  3.28395061728395 0  3.71043771043771 0  C 4.13692480359147 0  4.49943883277217 0.141414141414141  4.7979797979798 0.424242424242424  L 9.5 4.87878787878788  L 14.2020202020202 0.424242424242424  C 14.5005611672278 0.141414141414141  14.8630751964085 0  15.2895622895623 0  C 15.716049382716 0  16.0785634118967 0.141414141414141  16.3771043771044 0.424242424242424  L 18.5521885521886 2.48484848484849  C 18.8507295173962 2.76767676767677  19 3.11111111111111  19 3.51515151515152  C 19 3.91919191919192  18.8507295173962 4.26262626262626  18.5521885521886 4.54545454545455  L 13.8501683501683 9  L 18.5521885521886 13.4545454545455  Z " fill-rule="nonzero" fill="#000000" stroke="none" transform="matrix(1 0 0 1 291 -18 )" />
  </g>
</svg>