<?xml version="1.0" encoding="utf-8"?>
<svg version="1.1" xmlns:xlink="http://www.w3.org/1999/xlink" width="200px" height="143px" xmlns="http://www.w3.org/2000/svg">
  <g>
    <path d="M 0 0  L 200 0  L 200 143  L 0 143  L 0 0  " fill-rule="nonzero" fill="#cccccc" stroke="none" />
    <path d="M 10 10  L 190 10  L 190 133  L 10 133  L 10 10  " fill-rule="nonzero" fill="#ffffff" stroke="none" />
    <path d="M 114.725 42.9  C 108.719 42.9  104 38.181  104 32.175  C 104 26.169  108.719 21.45  114.725 21.45  C 120.731 21.45  125.45 26.169  125.45 32.175  C 125.45 38.181  120.731 42.9  114.725 42.9  " fill-rule="nonzero" fill="#cccccc" stroke="none" />
    <path d="M 14 130  L 14 66.2  L 57.25 37.2  L 117.8 80.236  L 152.4 54.6  L 187 80.236  L 187 130  L 14 130  " fill-rule="nonzero" fill="#169bd5" stroke="none" />
  </g>
</svg>