<?xml version="1.0" encoding="utf-8"?>
<svg version="1.1" xmlns:xlink="http://www.w3.org/1999/xlink" width="138px" height="193px" xmlns="http://www.w3.org/2000/svg">
  <g transform="matrix(1 0 0 1 -31 -157 )">
    <path d="M 31 157  L 169 157  L 169 350  L 31 350  L 31 157  " fill-rule="nonzero" fill="#cccccc" stroke="none" />
    <path d="M 41 167  L 159 167  L 159 340  L 41 340  L 41 167  " fill-rule="nonzero" fill="#ffffff" stroke="none" />
    <path d="M 113.11 206.65  C 107.314 206.65  102.76 202.096  102.76 196.3  C 102.76 190.504  107.314 185.95  113.11 185.95  C 118.906 185.95  123.46 190.504  123.46 196.3  C 123.46 202.096  118.906 206.65  113.11 206.65  " fill-rule="nonzero" fill="#cccccc" stroke="none" />
    <path d="M 45 337  L 45 245.7  L 72.75 204.2  L 111.6 237.4  L 133.8 229.1  L 156 237.4  L 156 337  L 45 337  " fill-rule="nonzero" fill="#169bd5" stroke="none" />
  </g>
</svg>