<?xml version="1.0" encoding="utf-8"?>
<svg version="1.1" xmlns:xlink="http://www.w3.org/1999/xlink" width="285px" height="40px" xmlns="http://www.w3.org/2000/svg">
  <g transform="matrix(1 0 0 1 -840 -505 )">
    <path d="M 841 510  A 4 4 0 0 1 845 506 L 1120 506  A 4 4 0 0 1 1124 510 L 1124 540  A 4 4 0 0 1 1120 544 L 845 544  A 4 4 0 0 1 841 540 L 841 510  Z " fill-rule="nonzero" fill="#ffffff" stroke="none" />
    <path d="M 840.5 510  A 4.5 4.5 0 0 1 845 505.5 L 1120 505.5  A 4.5 4.5 0 0 1 1124.5 510 L 1124.5 540  A 4.5 4.5 0 0 1 1120 544.5 L 845 544.5  A 4.5 4.5 0 0 1 840.5 540 L 840.5 510  Z " stroke-width="1" stroke="#797979" fill="none" stroke-opacity="0.988235294117647" />
  </g>
</svg>