<?xml version="1.0" encoding="utf-8"?>
<svg version="1.1" xmlns:xlink="http://www.w3.org/1999/xlink" width="12px" height="12px" viewBox="480 1381.5  12 12" xmlns="http://www.w3.org/2000/svg">
  <path d="M 486 1381.5  C 489.36 1381.5  492 1384.14  492 1387.5  C 492 1390.86  489.36 1393.5  486 1393.5  C 482.64 1393.5  480 1390.86  480 1387.5  C 480 1384.14  482.64 1381.5  486 1381.5  Z " fill-rule="nonzero" fill="#ffffff" stroke="none" />
  <path d="M 486 1382  C 489.08 1382  491.5 1384.42  491.5 1387.5  C 491.5 1390.58  489.08 1393  486 1393  C 482.92 1393  480.5 1390.58  480.5 1387.5  C 480.5 1384.42  482.92 1382  486 1382  Z " stroke-width="1" stroke="#797979" fill="none" />
  <path d="M 486 1390.5  C 484.32 1390.5  483 1389.18  483 1387.5  C 483 1385.82  484.32 1384.5  486 1384.5  C 487.68 1384.5  489 1385.82  489 1387.5  C 489 1389.18  487.68 1390.5  486 1390.5  " fill-rule="nonzero" fill="#797979" stroke="none" />
</svg>