<?xml version="1.0" encoding="utf-8"?>
<svg version="1.1" xmlns:xlink="http://www.w3.org/1999/xlink" width="180px" height="50px" xmlns="http://www.w3.org/2000/svg">
  <g transform="matrix(1 0 0 1 -908 -550 )">
    <path d="M 909 555  A 4 4 0 0 1 913 551 L 1083 551  A 4 4 0 0 1 1087 555 L 1087 595  A 4 4 0 0 1 1083 599 L 913 599  A 4 4 0 0 1 909 595 L 909 555  Z " fill-rule="nonzero" fill="#ffffff" stroke="none" />
    <path d="M 908.5 555  A 4.5 4.5 0 0 1 913 550.5 L 1083 550.5  A 4.5 4.5 0 0 1 1087.5 555 L 1087.5 595  A 4.5 4.5 0 0 1 1083 599.5 L 913 599.5  A 4.5 4.5 0 0 1 908.5 595 L 908.5 555  Z " stroke-width="1" stroke="#797979" fill="none" stroke-opacity="0.988235294117647" />
  </g>
</svg>