<?xml version="1.0" encoding="utf-8"?>
<svg version="1.1" xmlns:xlink="http://www.w3.org/1999/xlink" width="12px" height="12px" viewBox="70 1381.5  12 12" xmlns="http://www.w3.org/2000/svg">
  <path d="M 76 1381.5  C 79.36 1381.5  82 1384.14  82 1387.5  C 82 1390.86  79.36 1393.5  76 1393.5  C 72.64 1393.5  70 1390.86  70 1387.5  C 70 1384.14  72.64 1381.5  76 1381.5  Z " fill-rule="nonzero" fill="#ffffff" stroke="none" />
  <path d="M 76 1382  C 79.08 1382  81.5 1384.42  81.5 1387.5  C 81.5 1390.58  79.08 1393  76 1393  C 72.92 1393  70.5 1390.58  70.5 1387.5  C 70.5 1384.42  72.92 1382  76 1382  Z " stroke-width="1" stroke="#797979" fill="none" />
  <path d="M 76 1390.5  C 74.32 1390.5  73 1389.18  73 1387.5  C 73 1385.82  74.32 1384.5  76 1384.5  C 77.68 1384.5  79 1385.82  79 1387.5  C 79 1389.18  77.68 1390.5  76 1390.5  " fill-rule="nonzero" fill="#797979" stroke="none" />
</svg>