<?xml version="1.0" encoding="utf-8"?>
<svg version="1.1" xmlns:xlink="http://www.w3.org/1999/xlink" width="160px" height="40px" xmlns="http://www.w3.org/2000/svg">
  <defs>
    <mask fill="white" id="clip2">
      <path d="M 138.252427184466 20  C 138.145348314939 8.92871923286249  159.223300970874 0.163934426229512  159.223300970874 0.163934426229512  L 22.5242718446602 0.163934426229512  C 22.5242718446602 0.163934426229512  1.44611147546323 8.9291682544607  1.55339805825242 20  C 1.65962595303092 30.961586427694  22.5242718446602 39.5081967213115  22.5242718446602 39.5081967213115  L 159.223300970874 39.5081967213115  C 159.223300970874 39.5081967213115  138.358440786937 30.9611388621782  138.252427184466 20  Z " fill-rule="evenodd" />
    </mask>
  </defs>
  <g transform="matrix(1 0 0 1 -30 -95 )">
    <path d="M 138.252427184466 20  C 138.145348314939 8.92871923286249  159.223300970874 0.163934426229512  159.223300970874 0.163934426229512  L 22.5242718446602 0.163934426229512  C 22.5242718446602 0.163934426229512  1.44611147546323 8.9291682544607  1.55339805825242 20  C 1.65962595303092 30.961586427694  22.5242718446602 39.5081967213115  22.5242718446602 39.5081967213115  L 159.223300970874 39.5081967213115  C 159.223300970874 39.5081967213115  138.358440786937 30.9611388621782  138.252427184466 20  Z " fill-rule="nonzero" fill="#ffd6db" stroke="none" transform="matrix(1 0 0 1 30 95 )" />
    <path d="M 138.252427184466 20  C 138.145348314939 8.92871923286249  159.223300970874 0.163934426229512  159.223300970874 0.163934426229512  L 22.5242718446602 0.163934426229512  C 22.5242718446602 0.163934426229512  1.44611147546323 8.9291682544607  1.55339805825242 20  C 1.65962595303092 30.961586427694  22.5242718446602 39.5081967213115  22.5242718446602 39.5081967213115  L 159.223300970874 39.5081967213115  C 159.223300970874 39.5081967213115  138.358440786937 30.9611388621782  138.252427184466 20  Z " stroke-width="2" stroke="#ffd6db" fill="none" transform="matrix(1 0 0 1 30 95 )" mask="url(#clip2)" />
  </g>
</svg>