<?xml version="1.0" encoding="utf-8"?>
<svg version="1.1" xmlns:xlink="http://www.w3.org/1999/xlink" width="70px" height="70px" xmlns="http://www.w3.org/2000/svg">
  <g transform="matrix(1 0 0 1 -15 0 )">
    <path d="M 15 0  L 85 0  L 85 70  L 15 70  L 15 0  " fill-rule="nonzero" fill="#cccccc" stroke="none" />
    <path d="M 20 5  L 80 5  L 80 65  L 20 65  L 20 5  " fill-rule="nonzero" fill="#ffffff" stroke="none" />
    <path d="M 56.65 21  C 53.71 21  51.4 18.69  51.4 15.75  C 51.4 12.81  53.71 10.5  56.65 10.5  C 59.59 10.5  61.9 12.81  61.9 15.75  C 61.9 18.69  59.59 21  56.65 21  " fill-rule="nonzero" fill="#cccccc" stroke="none" />
    <path d="M 22 63  L 22 32.2  L 36 18.2  L 55.6 29.4  L 66.8 26.6  L 78 29.4  L 78 63  L 22 63  " fill-rule="nonzero" fill="#169bd5" stroke="none" />
  </g>
</svg>