<?xml version="1.0" encoding="utf-8"?>
<svg version="1.1" xmlns:xlink="http://www.w3.org/1999/xlink" width="24px" height="24px" xmlns="http://www.w3.org/2000/svg">
  <g transform="matrix(1 0 0 1 -463 -52 )">
    <path d="M 14.5234375 13.2890625  C 14.9661458333333 12.2526041666667  15.1875 11.1927083333333  15.1875 10.109375  C 15.1875 8.984375  14.9088541666667 8.10416666666666  14.3515625 7.46875  C 13.7942708333333 6.83333333333333  13.0260416666667 6.515625  12.046875 6.515625  C 11.390625 6.515625  10.7447916666667 6.67447916666667  10.109375 6.9921875  C 9.47395833333333 7.30989583333333  8.90104166666667 7.75  8.390625 8.3125  C 7.88020833333333 8.875  7.46614583333333 9.58854166666666  7.1484375 10.453125  C 6.83072916666667 11.3177083333333  6.671875 12.2552083333333  6.671875 13.265625  C 6.671875 14.4322916666667  6.95052083333333 15.3333333333333  7.5078125 15.96875  C 8.06510416666667 16.6041666666667  8.84895833333333 16.921875  9.859375 16.921875  C 10.859375 16.921875  11.7760416666667 16.5755208333333  12.609375 15.8828125  C 13.4427083333333 15.1901041666667  14.0807291666667 14.3255208333333  14.5234375 13.2890625  Z M 20.6875 3.3125  C 22.8958333333333 5.52083333333333  24 8.41666666666666  24 12  C 24 13.15625  23.8072916666667 14.1822916666667  23.421875 15.078125  C 23.0364583333333 15.9739583333333  22.5234375 16.6770833333333  21.8828125 17.1875  C 21.2421875 17.6979166666667  20.5572916666667 18.0859375  19.828125 18.3515625  C 19.0989583333333 18.6171875  18.34375 18.7604166666667  17.5625 18.78125  C 17.5 18.78125  17.4192708333333 18.7838541666667  17.3203125 18.7890625  C 17.2213541666667 18.7942708333333  17.1354166666667 18.796875  17.0625 18.796875  C 16.0729166666667 18.796875  15.3333333333333 18.5208333333333  14.84375 17.96875  C 14.5520833333333 17.625  14.3802083333333 17.1927083333333  14.328125 16.671875  C 13.7864583333333 17.359375  13.1015625 17.9322916666667  12.2734375 18.390625  C 11.4453125 18.8489583333333  10.5416666666667 19.078125  9.5625 19.078125  C 7.88541666666667 19.078125  6.5859375 18.5807291666667  5.6640625 17.5859375  C 4.7421875 16.5911458333333  4.28125 15.1875  4.28125 13.375  C 4.28125 11.7395833333333  4.625 10.2291666666667  5.3125 8.84375  C 6 7.45833333333333  6.93229166666667 6.36197916666666  8.109375 5.5546875  C 9.28645833333333 4.74739583333333  10.5677083333333 4.34375  11.953125 4.34375  C 12.859375 4.34375  13.6666666666667 4.52864583333333  14.375 4.8984375  C 15.0833333333333 5.26822916666667  15.6354166666667 5.78645833333333  16.03125 6.453125  L 16.0625 6.15625  L 16.234375 5.28125  C 16.2447916666667 5.21875  16.2734375 5.15625  16.3203125 5.09375  C 16.3671875 5.03125  16.4166666666667 5  16.46875 5  L 18.3125 5  C 18.3645833333333 5  18.4322916666667 5.05729166666667  18.515625 5.171875  C 18.5677083333333 5.22395833333333  18.5833333333333 5.30729166666666  18.5625 5.421875  L 16.6875 15.015625  C 16.6354166666667 15.265625  16.609375 15.515625  16.609375 15.765625  C 16.609375 16.171875  16.6744791666667 16.4427083333333  16.8046875 16.578125  C 16.9348958333333 16.7135416666667  17.1666666666667 16.78125  17.5 16.78125  C 17.7916666666667 16.7708333333333  18.0885416666667 16.7421875  18.390625 16.6953125  C 18.6927083333333 16.6484375  19.0729166666667 16.5234375  19.53125 16.3203125  C 19.9895833333333 16.1171875  20.390625 15.8567708333333  20.734375 15.5390625  C 21.078125 15.2213541666667  21.375 14.7552083333333  21.625 14.140625  C 21.875 13.5260416666667  22 12.8125  22 12  C 22 8.95833333333333  21.09375 6.53125  19.28125 4.71875  C 17.46875 2.90625  15.0416666666667 2  12 2  C 10.6458333333333 2  9.3515625 2.265625  8.1171875 2.796875  C 6.8828125 3.328125  5.8203125 4.0390625  4.9296875 4.9296875  C 4.0390625 5.8203125  3.328125 6.8828125  2.796875 8.1171875  C 2.265625 9.3515625  2 10.6458333333333  2 12  C 2 13.3541666666667  2.265625 14.6484375  2.796875 15.8828125  C 3.328125 17.1171875  4.0390625 18.1796875  4.9296875 19.0703125  C 5.8203125 19.9609375  6.8828125 20.671875  8.1171875 21.203125  C 9.3515625 21.734375  10.6458333333333 22  12 22  C 14.375 22  16.484375 21.25  18.328125 19.75  C 18.4427083333333 19.65625  18.5677083333333 19.6145833333333  18.703125 19.625  C 18.8385416666667 19.6354166666667  18.9479166666667 19.6979166666667  19.03125 19.8125  L 19.671875 20.578125  C 19.7552083333333 20.703125  19.7916666666667 20.828125  19.78125 20.953125  C 19.7604166666667 21.0885416666667  19.6979166666667 21.203125  19.59375 21.296875  C 18.53125 22.1614583333333  17.3463541666667 22.828125  16.0390625 23.296875  C 14.7317708333333 23.765625  13.3854166666667 24  12 24  C 10.375 24  8.82291666666667 23.6822916666667  7.34375 23.046875  C 5.86458333333333 22.4114583333333  4.58854166666667 21.5572916666667  3.515625 20.484375  C 2.44270833333333 19.4114583333333  1.58854166666667 18.1354166666667  0.953125 16.65625  C 0.317708333333333 15.1770833333333  0 13.625  0 12  C 0 10.375  0.317708333333333 8.82291666666667  0.953125 7.34375  C 1.58854166666667 5.86458333333333  2.44270833333333 4.58854166666667  3.515625 3.515625  C 4.58854166666667 2.44270833333333  5.86458333333333 1.58854166666667  7.34375 0.953124999999999  C 8.82291666666667 0.317708333333333  10.375 0  12 0  C 15.5833333333333 0  18.4791666666667 1.10416666666666  20.6875 3.3125  Z " fill-rule="nonzero" fill="#ffffff" stroke="none" transform="matrix(1 0 0 1 463 52 )" />
  </g>
</svg>